<mxfile host="app.diagrams.net" modified="2023-02-21T15:29:04.197Z" agent="5.0 (Macintosh; Intel Mac OS X 10_15_7) AppleWebKit/537.36 (KHTML, like Gecko) Chrome/110.0.0.0 Safari/537.36" etag="7qSbCHI_NL6hNitwlSq8" version="20.8.21" type="github">
  <diagram name="第 1 页" id="zvwwa2Sd1U4hzYWGbA_T">
    <mxGraphModel dx="561" dy="362" grid="1" gridSize="10" guides="1" tooltips="1" connect="1" arrows="1" fold="1" page="1" pageScale="1" pageWidth="827" pageHeight="1169" math="0" shadow="0">
      <root>
        <mxCell id="0" />
        <mxCell id="1" parent="0" />
        <mxCell id="nadIy8MLo4Op7KXq3YdE-1" value="Java 并发" style="rounded=0;whiteSpace=wrap;html=1;fontSize=20;shadow=0;fillColor=#f8cecc;strokeColor=#b85450;glass=0;sketch=1;curveFitting=1;jiggle=2;" vertex="1" parent="1">
          <mxGeometry x="100" y="120" width="120" height="60" as="geometry" />
        </mxCell>
      </root>
    </mxGraphModel>
  </diagram>
</mxfile>
